<svg width="72" height="72" viewBox="0 0 72 72" xmlns="http://www.w3.org/2000/svg">
  <title>ORCID logo</title>
  <g fill="none" fill-rule="evenodd">
    <path d="M72 36c0 19.884-16.116 36-36 36S0 55.884 0 36 16.116 0 36 0s36 16.116 36 36Z" fill="#A6CE39"/>
    <g transform="translate(18.869 12.91)" fill="#FFF" fill-rule="nonzero">
      <path d="M5.037 39.125H.695V9.144h4.342v29.981ZM11.409 9.144h11.729c11.165 0 16.071 7.922 16.071 15.005 0 7.698-6.062 15.004-16.015 15.004H11.409V9.144Zm4.342 26.118h6.908c9.84 0 12.095-7.418 12.095-11.113 0-6.019-3.863-11.114-12.321-11.114h-6.682v22.227ZM5.714 2.902c0 1.54-1.269 2.827-2.848 2.827S.019 4.441.019 2.902C.019 1.334 1.288.075 2.866.075c1.579 0 2.848 1.287 2.848 2.827Z"/>
    </g>
  </g>
</svg>
